
<svg width="281" height="64" fill="none" xmlns="http://www.w3.org/2000/svg" xmlns:xlink="http://www.w3.org/1999/xlink" xml:space="preserve" xmlns:serif="http://www.serif.com/" style="fill-rule:evenodd;clip-rule:evenodd;stroke-linejoin:round;stroke-miterlimit:2;">
    <g transform="matrix(0.091263,0,0,0.091263,170.337,31.676718)">
        <g transform="matrix(1,0,0,1,-1209,-367.5)">
            <g>
                <path d="M2418,196L2418,538C2418,637.345 2337.345,718 2238,718L1896,718C1796.655,718 1716,637.345 1716,538L1716,196C1716,96.655 1796.655,16 1896,16L2238,16C2337.345,16 2418,96.655 2418,196Z" style="fill:url(#_Radial1);"/>
            </g>
            <g>
                <path d="M2313.32,232.869C2313.5,233.522 2313.59,234.196 2313.59,234.872L2313.59,340.066C2313.59,341.416 2313.22,342.743 2312.52,343.911C2311.82,345.079 2310.81,346.048 2309.6,346.72L2218.05,397.553L2218.05,498.308C2218.05,501.05 2216.54,503.581 2214.08,504.962L2022.99,611.057C2022.55,611.296 2022.07,611.45 2021.6,611.613C2021.42,611.67 2021.25,611.776 2021.06,611.824C2019.72,612.163 2018.32,612.163 2016.98,611.824C2016.77,611.766 2016.57,611.651 2016.36,611.574C2015.92,611.421 2015.46,611.287 2015.05,611.057L1824,504.962C1822.78,504.289 1821.77,503.32 1821.07,502.152C1820.37,500.984 1820,499.658 1820,498.308L1820,182.726C1820,182.036 1820.1,181.365 1820.28,180.713C1820.34,180.492 1820.48,180.291 1820.56,180.07C1820.71,179.668 1820.84,179.255 1821.06,178.881C1821.21,178.632 1821.43,178.431 1821.61,178.201C1821.84,177.894 1822.05,177.577 1822.32,177.309C1822.54,177.088 1822.84,176.926 1823.1,176.734C1823.39,176.504 1823.65,176.254 1823.98,176.072L1919.52,123.025C1920.73,122.353 1922.1,122 1923.49,122C1924.89,122 1926.26,122.353 1927.47,123.025L2023,176.072L2023.02,176.072C2023.34,176.264 2023.6,176.504 2023.89,176.724C2024.15,176.916 2024.44,177.088 2024.67,177.299C2024.95,177.577 2025.15,177.894 2025.38,178.201C2025.55,178.431 2025.78,178.632 2025.92,178.881C2026.15,179.265 2026.28,179.668 2026.44,180.07C2026.52,180.291 2026.66,180.492 2026.72,180.722C2026.9,181.376 2026.99,182.049 2026.99,182.726L2026.99,379.835L2106.6,335.627L2106.6,234.863C2106.6,234.192 2106.7,233.511 2106.88,232.869C2106.95,232.638 2107.08,232.437 2107.16,232.217C2107.32,231.814 2107.45,231.402 2107.67,231.028C2107.82,230.778 2108.04,230.577 2108.21,230.347C2108.45,230.04 2108.65,229.724 2108.93,229.455C2109.15,229.235 2109.44,229.072 2109.7,228.88C2110,228.65 2110.26,228.401 2110.58,228.219L2206.13,175.171C2207.33,174.499 2208.71,174.145 2210.1,174.145C2211.5,174.145 2212.87,174.499 2214.08,175.171L2309.61,228.219C2309.95,228.41 2310.2,228.65 2310.5,228.871C2310.75,229.062 2311.04,229.235 2311.27,229.446C2311.55,229.724 2311.74,230.04 2311.98,230.347C2312.16,230.577 2312.38,230.778 2312.52,231.028C2312.75,231.402 2312.88,231.814 2313.04,232.217C2313.13,232.437 2313.26,232.638 2313.32,232.869ZM2297.67,335.627L2297.67,248.151L2264.24,266.712L2218.05,292.359L2218.05,379.835L2297.68,335.627L2297.67,335.627ZM2202.14,493.869L2202.14,406.335L2156.71,431.358L2026.98,502.766L2026.98,591.124L2202.14,493.869ZM1835.92,196.005L1835.92,493.869L2011.06,591.115L2011.06,502.776L1919.57,452.834L1919.54,452.815L1919.5,452.796C1919.19,452.623 1918.93,452.374 1918.64,452.163C1918.39,451.971 1918.1,451.818 1917.89,451.607L1917.87,451.578C1917.61,451.339 1917.43,451.041 1917.21,450.773C1917.01,450.514 1916.77,450.294 1916.61,450.025L1916.6,449.996C1916.42,449.709 1916.32,449.364 1916.19,449.038C1916.06,448.75 1915.89,448.482 1915.81,448.175C1915.71,447.81 1915.69,447.417 1915.65,447.043C1915.61,446.756 1915.53,446.468 1915.53,446.181L1915.53,240.213L1869.36,214.556L1835.92,196.005ZM1923.5,138.537L1843.91,182.726L1923.48,226.915L2003.07,182.716L1923.48,138.537L1923.5,138.537ZM1964.9,414.312L2011.07,388.675L2011.07,196.005L1977.64,214.566L1931.45,240.213L1931.45,432.883L1964.9,414.312ZM2210.1,190.684L2130.52,234.872L2210.1,279.061L2289.68,234.863L2210.1,190.684ZM2202.14,292.359L2155.95,266.712L2122.52,248.151L2122.52,335.627L2168.7,361.264L2202.14,379.835L2202.14,292.359ZM2019.01,489.487L2135.75,425.213L2194.1,393.095L2114.57,348.935L2023.01,399.777L1939.56,446.113L2019.01,489.487Z" style="fill:url(#_Linear2);"/>
            </g>
        </g>
    </g>
    <g transform="matrix(0.127571,0,0,0.127571,-0.637855,-16.021552)">
        <path d="M202.5,202.5L332.5,542.5L332.5,560L277.5,560L246,480L91.5,480L60,560L5,560L5,542.5L135,202.5L202.5,202.5ZM225,425L180,307.5L170,275L167.5,275L157.5,307.5L112.5,425L225,425ZM427.402,315L427.402,367.5L474.902,367.5L474.902,420L427.402,420L427.402,560L367.402,560L367.402,315L427.402,315ZM532.402,315L532.402,367.5L474.902,367.5L474.902,315L532.402,315ZM574.902,237.5L592.402,237.5L592.402,315L664.902,315L664.902,367.5L592.402,367.5L592.402,472.5C592.402,486.5 596.402,496.667 604.402,503C612.402,509.333 622.569,512.5 634.902,512.5C644.902,512.5 654.902,510.833 664.902,507.5L664.902,560C654.902,565 639.069,567.5 617.402,567.5C601.736,567.5 587.402,563.667 574.402,556C561.402,548 551.069,537 543.402,523C536.069,509 532.402,493 532.402,475L532.402,267.5L574.902,237.5ZM767.305,315L767.305,560L707.305,560L707.305,315L767.305,315ZM737.305,197.5C748.638,197.5 757.638,201 764.305,208C771.305,214.667 774.805,223.667 774.805,235C774.805,246.333 771.305,255.5 764.305,262.5C757.638,269.167 748.638,272.5 737.305,272.5C725.971,272.5 716.805,269.167 709.805,262.5C703.138,255.5 699.805,246.333 699.805,235C699.805,223.667 703.138,214.667 709.805,208C716.805,201 725.971,197.5 737.305,197.5ZM892.305,460C842.305,446 817.305,421 817.305,385C817.305,371 821.471,358.167 829.805,346.5C838.138,334.5 849.805,325 864.805,318C880.138,311 897.638,307.5 917.305,307.5C940.305,307.5 959.971,312 976.305,321C992.971,329.667 1005.8,341.833 1014.8,357.5L972.305,390C960.971,370 941.805,360 914.805,360C903.138,360 893.971,362.5 887.305,367.5C880.638,372.5 877.305,378.333 877.305,385C877.305,391 879.471,395.667 883.805,399C888.138,402 895.138,404.833 904.805,407.5L947.305,417.5C995.638,430.167 1019.8,455.167 1019.8,492.5C1019.8,506.5 1015.64,519.333 1007.3,531C998.971,542.333 987.305,551.333 972.305,558C957.638,564.333 940.971,567.5 922.305,567.5C896.305,567.5 873.305,562 853.305,551C833.638,539.667 819.971,525.167 812.305,507.5L854.805,477.5C859.805,488.5 868.805,497.5 881.805,504.5C894.805,511.5 908.305,515 922.305,515C934.305,515 943.471,513 949.805,509C956.471,504.667 959.805,499.167 959.805,492.5C959.805,486.5 957.471,481.667 952.805,478C948.471,474 942.471,471.333 934.805,470L892.305,460ZM1114.79,485C1114.79,494.667 1118.45,502.5 1125.79,508.5C1133.45,514.5 1143.12,517.5 1154.79,517.5C1167.12,517.5 1177.62,514.667 1186.29,509C1194.95,503.333 1201.45,496.5 1205.79,488.5C1210.12,480.167 1212.29,472.333 1212.29,465C1197.29,455 1180.62,450 1162.29,450C1147.62,450 1135.95,453.333 1127.29,460C1118.95,466.333 1114.79,474.667 1114.79,485ZM1157.29,360C1142.95,360 1129.79,363.667 1117.79,371C1106.12,378 1097.62,386.833 1092.29,397.5L1044.79,365C1055.79,346.667 1070.62,332.5 1089.29,322.5C1107.95,312.5 1128.12,307.5 1149.79,307.5C1164.12,307.5 1177.12,309.833 1188.79,314.5C1200.45,319.167 1208.29,323.5 1212.29,327.5L1212.29,385L1272.29,385L1272.29,560L1212.29,560L1212.29,530L1209.79,530C1201.79,542 1192.29,551.333 1181.29,558C1170.29,564.333 1156.45,567.5 1139.79,567.5C1124.45,567.5 1110.29,563.833 1097.29,556.5C1084.29,549.167 1073.95,539.667 1066.29,528C1058.62,516 1054.79,503.333 1054.79,490C1054.79,465 1063.79,445 1081.79,430C1099.79,415 1123.29,407.5 1152.29,407.5C1164.62,407.5 1176.12,408.833 1186.79,411.5C1197.45,414.167 1205.95,417 1212.29,420L1212.29,385C1208.62,379.333 1202.12,373.833 1192.79,368.5C1183.45,362.833 1171.62,360 1157.29,360ZM1387.36,315L1387.36,367.5L1444.86,367.5L1444.86,420L1387.36,420L1387.36,560L1327.36,560L1327.36,315L1387.36,315ZM1444.86,315C1454.86,310 1466.53,307.5 1479.86,307.5C1495.53,307.5 1509.53,311.5 1521.86,319.5C1534.53,327.167 1544.36,338 1551.36,352C1558.7,366 1562.36,382 1562.36,400L1562.36,560L1502.36,560L1502.36,400C1502.36,386 1499.03,375.833 1492.36,369.5C1485.7,363.167 1477.36,360 1467.36,360C1462.03,360 1457.36,360.833 1453.36,362.5C1449.36,364.167 1444.86,367.5 1444.86,367.5L1444.86,315Z" style="fill:rgb(245,48,3);fill-rule:nonzero;"/>
    </g>
    <defs>
        <radialGradient id="_Radial1" cx="0" cy="0" r="1" gradientUnits="userSpaceOnUse" gradientTransform="matrix(-0,634.703,-466.946,-0,2068.07,83.2971)"><stop offset="0" style="stop-color:rgb(254,118,88);stop-opacity:1"/><stop offset="1" style="stop-color:rgb(242,36,3);stop-opacity:1"/></radialGradient>
        <linearGradient id="_Linear2" x1="0" y1="0" x2="1" y2="0" gradientUnits="userSpaceOnUse" gradientTransform="matrix(0,490.078,-490.078,0,2066.8,122)"><stop offset="0" style="stop-color:rgb(253,246,247);stop-opacity:1"/><stop offset="1" style="stop-color:rgb(250,207,203);stop-opacity:1"/></linearGradient>
    </defs>
</svg>
