<?xml version="1.0" encoding="UTF-8" standalone="no"?><!DOCTYPE svg PUBLIC "-//W3C//DTD SVG 1.1//EN" "http://www.w3.org/Graphics/SVG/1.1/DTD/svg11.dtd"><svg width="100%" height="100%" viewBox="0 0 1171 267" version="1.1" xmlns="http://www.w3.org/2000/svg" xmlns:xlink="http://www.w3.org/1999/xlink" xml:space="preserve" xmlns:serif="http://www.serif.com/" style="fill-rule:evenodd;clip-rule:evenodd;stroke-linejoin:round;stroke-miterlimit:2;"><g><path d="M1169.475,66.771l0,130.05c0,37.777 -30.67,68.447 -68.447,68.447l-130.05,0c-37.777,0 -68.447,-30.67 -68.447,-68.447l0,-130.05c0,-37.777 30.67,-68.447 68.447,-68.447l130.05,-0c37.777,0 68.447,30.67 68.447,68.447Z" style="fill:url(#_Radial1);"/></g><g><path d="M1129.669,80.791c0.068,0.248 0.103,0.505 0.103,0.762l0,40.001c0,0.513 -0.141,1.018 -0.407,1.462c-0.266,0.444 -0.65,0.813 -1.11,1.068l-34.813,19.33l0,38.313c0,1.043 -0.574,2.005 -1.51,2.53l-72.664,40.344c-0.167,0.091 -0.35,0.149 -0.529,0.211c-0.068,0.022 -0.133,0.062 -0.205,0.08c-0.51,0.129 -1.042,0.129 -1.551,0c-0.08,-0.022 -0.156,-0.066 -0.236,-0.095c-0.167,-0.058 -0.342,-0.109 -0.498,-0.197l-72.649,-40.344c-0.464,-0.256 -0.848,-0.624 -1.114,-1.069c-0.266,-0.444 -0.407,-0.948 -0.407,-1.462l0,-120.004c0,-0.262 0.038,-0.518 0.106,-0.765c0.023,-0.084 0.076,-0.16 0.106,-0.245c0.057,-0.153 0.106,-0.31 0.19,-0.452c0.057,-0.095 0.141,-0.171 0.209,-0.259c0.087,-0.117 0.167,-0.237 0.27,-0.339c0.084,-0.084 0.198,-0.146 0.297,-0.219c0.11,-0.087 0.209,-0.183 0.335,-0.252l36.33,-20.172c0.46,-0.256 0.981,-0.39 1.51,-0.39c0.532,0 1.053,0.134 1.513,0.39l36.326,20.172l0.008,0c0.122,0.073 0.221,0.164 0.331,0.248c0.099,0.073 0.209,0.138 0.297,0.219c0.106,0.106 0.183,0.226 0.27,0.343c0.065,0.087 0.152,0.164 0.205,0.259c0.087,0.146 0.137,0.299 0.198,0.452c0.03,0.084 0.084,0.16 0.106,0.248c0.068,0.249 0.103,0.505 0.103,0.762l0,74.953l30.273,-16.811l0,-38.317c0,-0.255 0.038,-0.514 0.106,-0.758c0.027,-0.088 0.076,-0.164 0.106,-0.248c0.061,-0.153 0.11,-0.31 0.194,-0.452c0.057,-0.095 0.141,-0.171 0.205,-0.259c0.091,-0.117 0.167,-0.237 0.274,-0.339c0.084,-0.084 0.194,-0.146 0.293,-0.219c0.114,-0.087 0.213,-0.182 0.335,-0.251l36.334,-20.172c0.456,-0.256 0.981,-0.39 1.51,-0.39c0.532,0 1.053,0.135 1.513,0.39l36.326,20.172c0.129,0.073 0.224,0.164 0.338,0.248c0.095,0.073 0.205,0.138 0.293,0.219c0.106,0.106 0.179,0.226 0.27,0.343c0.068,0.087 0.152,0.164 0.205,0.259c0.087,0.142 0.137,0.299 0.198,0.452c0.034,0.084 0.084,0.16 0.106,0.248Zm-5.951,39.075l0,-33.264l-12.712,7.058l-17.564,9.753l0,33.264l30.28,-16.811l-0.004,0Zm-36.326,60.174l0,-33.286l-17.275,9.515l-49.331,27.154l0,33.599l66.607,-36.982Zm-139.26,-113.267l0,113.267l66.599,36.979l0,-33.592l-34.79,-18.991l-0.011,-0.007l-0.015,-0.007c-0.118,-0.066 -0.217,-0.16 -0.327,-0.241c-0.095,-0.073 -0.205,-0.131 -0.285,-0.211l-0.008,-0.011c-0.099,-0.091 -0.167,-0.204 -0.251,-0.306c-0.076,-0.098 -0.167,-0.182 -0.228,-0.284l-0.004,-0.011c-0.068,-0.109 -0.106,-0.24 -0.156,-0.364c-0.049,-0.11 -0.114,-0.211 -0.144,-0.328c-0.038,-0.139 -0.046,-0.288 -0.061,-0.43c-0.015,-0.109 -0.046,-0.219 -0.046,-0.328l0,-78.322l-17.557,-9.756l-12.716,-7.054Zm33.303,-21.853l-30.265,16.803l30.257,16.803l30.265,-16.807l-30.265,-16.8l0.008,0Zm15.743,104.867l17.557,-9.749l0,-73.265l-12.712,7.058l-17.564,9.753l0,73.265l12.72,-7.062Zm93.24,-85.037l-30.261,16.803l30.261,16.803l30.261,-16.807l-30.261,-16.8Zm-3.027,38.663l-17.564,-9.753l-12.712,-7.058l0,33.264l17.561,9.749l12.716,7.062l0,-33.264Zm-69.637,74.96l44.392,-24.441l22.188,-12.213l-30.242,-16.792l-34.817,19.333l-31.733,17.62l30.212,16.494Z" style="fill:url(#_Linear2);"/></g><path d="M104.98,40.882l69.101,180.726l0,9.302l-29.235,0l-16.744,-42.524l-82.124,0l-16.744,42.524l-29.235,0l0,-9.302l69.101,-180.726l35.879,0Zm11.96,118.269l-23.92,-62.457l-5.315,-17.275l-1.329,0l-5.315,17.275l-23.92,62.457l59.799,0Zm107.586,-58.47l0,27.906l25.248,0l0,27.906l-25.248,0l0,74.416l-31.893,0l0,-130.229l31.893,0Zm55.812,0l0,27.906l-30.564,0l0,-27.906l30.564,0Zm22.591,-41.195l9.302,0l0,41.195l38.537,0l0,27.906l-38.537,0l0,55.812c0,7.442 2.126,12.846 6.379,16.212c4.252,3.366 9.657,5.05 16.212,5.05c5.315,0 10.631,-0.886 15.946,-2.658l0,27.906c-5.315,2.658 -13.731,3.987 -25.248,3.987c-8.327,0 -15.946,-2.037 -22.856,-6.113c-6.91,-4.252 -12.403,-10.099 -16.478,-17.541c-3.898,-7.442 -5.847,-15.946 -5.847,-25.514l0,-110.296l22.591,-15.946Zm102.271,41.195l0,130.229l-31.893,0l0,-130.229l31.893,0Zm-15.946,-62.457c6.024,0 10.808,1.86 14.352,5.581c3.721,3.544 5.581,8.328 5.581,14.352c0,6.024 -1.86,10.897 -5.581,14.618c-3.544,3.544 -8.328,5.315 -14.352,5.315c-6.025,0 -10.897,-1.772 -14.618,-5.315c-3.544,-3.721 -5.315,-8.594 -5.315,-14.618c0,-6.024 1.772,-10.808 5.315,-14.352c3.721,-3.721 8.593,-5.581 14.618,-5.581Zm82.39,139.531c-26.577,-7.442 -39.866,-20.73 -39.866,-39.866c0,-7.442 2.214,-14.263 6.644,-20.465c4.429,-6.379 10.631,-11.428 18.604,-15.149c8.15,-3.721 17.452,-5.581 27.906,-5.581c12.226,0 22.679,2.392 31.361,7.176c8.859,4.607 15.678,11.074 20.462,19.401l-22.588,17.275c-6.025,-10.631 -16.212,-15.946 -30.564,-15.946c-6.202,0 -11.074,1.329 -14.618,3.987c-3.544,2.658 -5.315,5.758 -5.315,9.302c0,3.189 1.151,5.67 3.455,7.442c2.303,1.595 6.024,3.101 11.162,4.518l22.591,5.315c25.691,6.733 38.534,20.022 38.534,39.866c0,7.442 -2.211,14.263 -6.644,20.465c-4.427,6.024 -10.628,10.808 -18.601,14.352c-7.796,3.366 -16.655,5.05 -26.577,5.05c-13.82,0 -26.046,-2.924 -36.677,-8.771c-10.454,-6.024 -17.719,-13.731 -21.793,-23.122l22.591,-15.946c2.658,5.847 7.442,10.631 14.352,14.352c6.91,3.721 14.086,5.581 21.528,5.581c6.379,0 11.251,-1.063 14.618,-3.189c3.543,-2.303 5.315,-5.227 5.315,-8.771c0,-3.189 -1.241,-5.758 -3.721,-7.707c-2.304,-2.126 -5.493,-3.544 -9.568,-4.252l-22.591,-5.315Zm118.261,13.289c0,5.138 1.945,9.302 5.847,12.491c4.072,3.189 9.212,4.784 15.415,4.784c6.554,0 12.135,-1.506 16.744,-4.518c4.603,-3.012 8.058,-6.644 10.365,-10.897c2.302,-4.429 3.455,-8.594 3.455,-12.491c-7.973,-5.315 -16.834,-7.973 -26.577,-7.973c-7.798,0 -14.001,1.772 -18.604,5.315c-4.433,3.366 -6.644,7.796 -6.644,13.289Zm22.591,-66.443c-7.622,0 -14.618,1.949 -20.996,5.847c-6.203,3.721 -10.721,8.416 -13.554,14.086l-25.248,-17.275c5.847,-9.745 13.73,-17.275 23.654,-22.591c9.919,-5.315 20.64,-7.973 32.159,-7.973c7.617,0 14.527,1.24 20.73,3.721c6.198,2.481 10.365,4.784 12.491,6.91l0,30.564l31.893,0l0,93.021l-31.893,0l0,-15.946l-1.329,0c-4.252,6.379 -9.302,11.339 -15.149,14.883c-5.847,3.366 -13.204,5.05 -22.059,5.05c-8.154,0 -15.681,-1.949 -22.591,-5.847c-6.91,-3.898 -12.406,-8.948 -16.478,-15.149c-4.077,-6.379 -6.113,-13.112 -6.113,-20.199c0,-13.289 4.784,-23.92 14.352,-31.893c9.568,-7.973 22.059,-11.96 37.474,-11.96c6.554,0 12.667,0.709 18.338,2.126c5.666,1.418 10.184,2.924 13.554,4.518l0,-18.604c-1.951,-3.012 -5.406,-5.936 -10.365,-8.771c-4.965,-3.012 -11.253,-4.518 -18.87,-4.518Zm122.293,-23.92l0,27.906l30.564,0l0,27.906l-30.564,0l0,74.416l-31.893,0l0,-130.229l31.893,0Zm30.564,0c5.315,-2.658 11.519,-3.987 18.604,-3.987c8.329,0 15.771,2.126 22.325,6.379c6.735,4.075 11.96,9.834 15.681,17.275c3.902,7.442 5.847,15.946 5.847,25.514l0,85.047l-31.893,0l0,-85.047c0,-7.442 -1.77,-12.846 -5.315,-16.212c-3.54,-3.366 -7.973,-5.05 -13.289,-5.05c-2.833,0 -5.315,0.443 -7.442,1.329c-2.126,0.886 -4.518,2.658 -4.518,2.658l0,-27.906Z" style="fill:#f53003;fill-rule:nonzero;"/><defs><radialGradient id="_Radial1" cx="0" cy="0" r="1" gradientUnits="userSpaceOnUse" gradientTransform="matrix(-0,241.353822,-177.562106,-0,1036.409704,23.914589)"><stop offset="0" style="stop-color:#fe7658;stop-opacity:1"/><stop offset="1" style="stop-color:#f22403;stop-opacity:1"/></radialGradient><linearGradient id="_Linear2" x1="0" y1="0" x2="1" y2="0" gradientUnits="userSpaceOnUse" gradientTransform="matrix(0,186.358341,-186.358341,0,1035.92677,38.631855)"><stop offset="0" style="stop-color:#fdf6f7;stop-opacity:1"/><stop offset="1" style="stop-color:#facfcb;stop-opacity:1"/></linearGradient></defs></svg>